<svg width="512" height="256" viewBox="0 0 512 256" xmlns="http://www.w3.org/2000/svg">
  <defs>
    <linearGradient id="carGrad" x1="0" y1="0" x2="1" y2="1">
      <stop offset="0" stop-color="#111111"/>
      <stop offset="1" stop-color="#0a7aff"/>
    </linearGradient>
    <filter id="glow" x="-50%" y="-50%" width="200%" height="200%">
      <feGaussianBlur stdDeviation="4" result="blur"/>
      <feMerge>
        <feMergeNode in="blur"/>
        <feMergeNode in="SourceGraphic"/>
      </feMerge>
    </filter>
  </defs>
  <!-- Car silhouette -->
  <path d="M66 156c4-24 22-40 46-48l92-28c9-3 18-1 25 5l22 20h114c24 0 43 19 43 43v20H66v-12z"
        fill="url(#carGrad)"/>
  <!-- Windows -->
  <path d="M164 100l56-18c7-2 14 0 18 5l18 18H174c-10 0-18 6-20 15v-9c0-5 3-9 10-11z" fill="#eaeef4"/>
  <!-- Wheels -->
  <circle cx="176" cy="176" r="22" fill="#111"/>
  <circle cx="372" cy="176" r="22" fill="#111"/>
  <circle cx="176" cy="176" r="8" fill="#0a7aff" filter="url(#glow)"/>
  <circle cx="372" cy="176" r="8" fill="#0a7aff" filter="url(#glow)"/>
</svg>


