<svg width="120" height="64" viewBox="0 0 120 64" xmlns="http://www.w3.org/2000/svg">
  <defs>
    <linearGradient id="b" x1="0" y1="0" x2="1" y2="1">
      <stop stop-color="#111111"/>
      <stop offset="1" stop-color="#2563eb"/>
    </linearGradient>
  </defs>
  <!-- Car body -->
  <path d="M18 40c0-6 4-10 10-12l16-5c3-.8 6 .2 8 2l6 6h22c6 0 10 4 10 10v6H18v-7z" fill="url(#b)"/>
  <!-- Windows / roof -->
  <path d="M34 28l14-4c2-.6 4 .1 5 1.5l5 6H36c-2 0-4 1.2-5 3V30c0-1 1-1.8 3-2z" fill="#e5e7eb"/>
  <!-- Wheels -->
  <circle cx="38" cy="50" r="7" fill="#111111"/>
  <circle cx="86" cy="50" r="7" fill="#111111"/>
  <circle cx="38" cy="50" r="3" fill="#3b82f6"/>
  <circle cx="86" cy="50" r="3" fill="#3b82f6"/>
</svg>

