<svg width="512" height="256" viewBox="0 0 512 256" xmlns="http://www.w3.org/2000/svg">
  <defs>
    <linearGradient id="neon" x1="0" y1="0" x2="1" y2="1">
      <stop offset="0" stop-color="#00E5FF"/>
      <stop offset="1" stop-color="#FF00D4"/>
    </linearGradient>
    <radialGradient id="halo" cx="50%" cy="50%" r="60%">
      <stop offset="0" stop-color="#7DF9FF" stop-opacity="0.7"/>
      <stop offset="1" stop-color="#7DF9FF" stop-opacity="0"/>
    </radialGradient>
    <filter id="blurGlow" x="-50%" y="-50%" width="200%" height="200%">
      <feGaussianBlur in="SourceGraphic" stdDeviation="6"/>
    </filter>
  </defs>

  <!-- Cinematic arc (film strip) -->
  <path d="M64 160c0-74 82-112 192-112s192 38 192 112" fill="none" stroke="url(#neon)" stroke-width="6" stroke-linecap="round"/>
  <!-- Perforations on the film strip -->
  <g stroke="#0EA5E9" stroke-width="2">
    <circle cx="128" cy="132" r="3"/>
    <circle cx="176" cy="116" r="3"/>
    <circle cx="224" cy="106" r="3"/>
    <circle cx="288" cy="104" r="3"/>
    <circle cx="336" cy="112" r="3"/>
    <circle cx="384" cy="128" r="3"/>
  </g>

  <!-- Core badge with halo -->
  <circle cx="256" cy="156" r="54" fill="url(#neon)" opacity="0.85"/>
  <circle cx="256" cy="156" r="74" fill="url(#halo)"/>

  <!-- Futuristic ride glyph (hover car + star) -->
  <path d="M196 168c5-14 16-22 30-26l36-10c5-1 10 0 14 4l12 10h76c12 0 20 8 22 18" fill="#0B1220" opacity="0.9"/>
  <circle cx="220" cy="184" r="6" fill="#0B1220"/>
  <circle cx="292" cy="184" r="6" fill="#0B1220"/>
  <path d="M330 146l6 10 11 3-9 7 2 12-10-6-10 6 3-12-9-7 11-3 5-10z" fill="#FFFFFF" opacity="0.9"/>

  <!-- Soft glow under badge -->
  <ellipse cx="256" cy="210" rx="120" ry="16" fill="#00E5FF" opacity="0.15" filter="url(#blurGlow)"/>
</svg>


