<svg width="512" height="256" viewBox="0 0 512 256" xmlns="http://www.w3.org/2000/svg">
  <defs>
    <linearGradient id="core" x1="0" y1="0" x2="1" y2="1">
      <stop offset="0" stop-color="#00E5FF"/>
      <stop offset="1" stop-color="#7C3AED"/>
    </linearGradient>
    <radialGradient id="glow" cx="50%" cy="50%" r="60%">
      <stop offset="0" stop-color="#88D5FF" stop-opacity="0.9"/>
      <stop offset="1" stop-color="#88D5FF" stop-opacity="0"/>
    </radialGradient>
    <filter id="softGlow" x="-50%" y="-50%" width="200%" height="200%">
      <feGaussianBlur in="SourceGraphic" stdDeviation="6" result="b"/>
      <feMerge>
        <feMergeNode in="b"/>
        <feMergeNode in="SourceGraphic"/>
      </feMerge>
    </filter>
  </defs>

  <!-- Outer orbit ring -->
  <ellipse cx="256" cy="128" rx="180" ry="62" fill="none" stroke="#0EA5E9" stroke-width="3" opacity="0.6"/>
  <ellipse cx="256" cy="128" rx="180" ry="62" fill="url(#glow)" opacity="0.35"/>

  <!-- Core sphere -->
  <circle cx="256" cy="128" r="54" fill="url(#core)" filter="url(#softGlow)"/>

  <!-- Stylized hover car glyph (minimal) -->
  <path d="M188 144c4-18 18-28 34-33l44-12c5-2 11-1 15 3l10 10h74c15 0 26 11 26 26v6H188v-0z"
        fill="#0B1220" opacity="0.9"/>
  <circle cx="234" cy="156" r="8" fill="#111"/>
  <circle cx="332" cy="156" r="8" fill="#111"/>
  <circle cx="234" cy="156" r="3" fill="#00E5FF"/>
  <circle cx="332" cy="156" r="3" fill="#00E5FF"/>

  <!-- Spark trail accents -->
  <path d="M110 128h32" stroke="#22D3EE" stroke-width="3" stroke-linecap="round" opacity="0.7"/>
  <path d="M370 96h28" stroke="#A78BFA" stroke-width="3" stroke-linecap="round" opacity="0.7"/>
  <path d="M372 164h24" stroke="#60A5FA" stroke-width="3" stroke-linecap="round" opacity="0.7"/>
</svg>


